<svg width="130" height="40" viewBox="0 0 130 40" fill="none" xmlns="http://www.w3.org/2000/svg">
<g clip-path="url(#clip0_449_932)">
<path d="M0.00537109 4.28546H2.27309V1.94433H7.61206V0H0.00537109V4.28546Z" fill="#FF0000"/>
<path d="M0.00537109 10.5147H7.61206V8.57038H2.27309V6.22925H0.00537109V10.5147Z" fill="#FF0000"/>
<path d="M7.15584 4.28589H2.27319V6.23022H7.15584V4.28589Z" fill="#FF0000"/>
<path d="M17.0701 0.966551C16.7475 0.656891 16.3636 0.418306 15.9431 0.266196C15.4019 0.0756753 14.8304 -0.014421 14.2567 0.000339138H9.55859V10.5156H11.8263V6.23013H14.2567C14.8277 6.24392 15.3964 6.15384 15.9352 5.96427C16.3585 5.81315 16.7452 5.57452 17.0701 5.26391C17.3523 4.98454 17.5685 4.64561 17.703 4.27191C17.9675 3.5262 17.9675 2.7122 17.703 1.96649C17.5691 1.59022 17.3528 1.24859 17.0701 0.966551ZM15.4828 3.71639C15.3665 3.87196 15.2121 3.99495 15.0345 4.07351C14.8278 4.16183 14.6092 4.21868 14.3857 4.24215C14.1315 4.27212 13.8758 4.2867 13.6199 4.2858H11.8263V1.94467H13.6218C13.8778 1.94377 14.1335 1.95834 14.3877 1.98832C14.6114 2.01142 14.8303 2.06897 15.0364 2.15894C15.2137 2.23637 15.3676 2.3588 15.4828 2.51408C15.6018 2.68919 15.6616 2.89776 15.6535 3.10928C15.6641 3.32482 15.6042 3.53797 15.4828 3.71639Z" fill="#FF0000"/>
<path d="M30.8507 8.57092V0H28.583V10.5152H36.1897V8.57092H30.8507Z" fill="#FF0000"/>
<path d="M19.3335 4.28546H21.6012V1.94433H26.9402V0H19.3335V4.28546Z" fill="#FF0000"/>
<path d="M21.6012 6.22925H19.3335V10.5147H21.6012V6.22925Z" fill="#FF0000"/>
<path d="M26.484 4.28589H21.6013V6.23022H26.484V4.28589Z" fill="#FF0000"/>
</g>
<path d="M0 16.8247H7.60869V14.8804L0 14.8804V16.8247Z" fill="#FF0000"/>
<path d="M9.55835 39.6222L17.3424 18.7183H21.2056L29.0473 39.6222H25.04L23.3967 34.9801H14.9207L13.3062 39.6222H9.55835ZM19.1299 22.9568L15.9874 31.9238H22.3012L19.1299 22.9568Z" fill="white"/>
<path d="M33.9421 18.7183V39.6222H30.2807V18.7183H33.9421Z" fill="white"/>
<path d="M57.4069 32.6735H60.9242C60.0304 37.3732 56.7438 39.997 51.9004 39.997C45.7885 39.997 42.2424 35.6721 42.2424 29.0982C42.2424 22.5243 45.9903 18.3435 52.0734 18.3435C56.715 18.3435 60.0305 20.9673 60.8665 25.6671H57.3493C56.6862 22.8126 54.6969 21.3421 51.9581 21.3421C48.6427 21.3421 46.0191 24.0524 46.0191 29.0982C46.0191 34.1728 48.585 36.9984 51.9293 36.9984C54.7834 36.9984 56.7438 35.5568 57.4069 32.6735Z" fill="white"/>
<path d="M77.3928 32.8465H65.832C66.0627 35.7298 68.0807 37.1426 70.0412 37.1426C71.8575 37.1426 73.2413 36.4506 73.8467 34.9801H77.2198C76.5279 37.4597 74.1638 39.997 70.1853 39.997C65.1978 39.997 62.3436 36.2199 62.3436 31.7508C62.3436 27.0799 65.5437 23.7641 69.9547 23.7641C74.7116 23.7641 77.7099 27.6565 77.3928 32.8465ZM69.9547 26.4456C68.3402 26.4456 66.1491 27.4259 65.832 30.338H73.9044C73.8179 27.916 71.9728 26.4456 69.9547 26.4456Z" fill="white"/>
<path d="M82.7835 24.1101V26.2726C83.6773 24.6579 85.2917 23.7641 87.4828 23.7641C91.2307 23.7641 92.7587 26.1861 92.7587 29.8767V39.6222H89.3279V30.7128C89.3279 28.608 89.0396 26.5609 86.3873 26.5609C83.7349 26.5609 82.7835 28.5792 82.7835 31.376V39.6222H79.3528V24.1101H82.7835Z" fill="white"/>
<path d="M95.9549 24.1101V20.0158H99.3857V24.1101H102.499V26.5897H99.3857V35.0378C99.3857 36.6236 99.7605 36.9984 101.231 36.9984H102.471V39.6222H99.9335C96.618 39.6222 95.9549 38.7284 95.9549 35.5568V26.5897H93.6486V24.1101H95.9549Z" fill="white"/>
<path d="M118.409 32.8465H106.848C107.079 35.7298 109.097 37.1426 111.057 37.1426C112.874 37.1426 114.257 36.4506 114.863 34.9801H118.236C117.544 37.4597 115.18 39.997 111.201 39.997C106.214 39.997 103.36 36.2199 103.36 31.7508C103.36 27.0799 106.56 23.7641 110.971 23.7641C115.728 23.7641 118.726 27.6565 118.409 32.8465ZM110.971 26.4456C109.356 26.4456 107.165 27.4259 106.848 30.338H114.921C114.834 27.916 112.989 26.4456 110.971 26.4456Z" fill="white"/>
<path d="M128.845 24.1389V27.5989C128.268 27.5412 127.721 27.5124 127.202 27.5124C125.039 27.5124 123.8 28.3774 123.8 31.4913V39.6222H120.369V24.1101H123.742V26.8781C124.578 25.1481 126.077 24.1101 127.951 24.0813C128.211 24.0813 128.585 24.1101 128.845 24.1389Z" fill="white"/>
<defs>
<clipPath id="clip0_449_932">
<rect width="36.1883" height="10.5152" fill="white" transform="translate(0.00537109)"/>
</clipPath>
</defs>
</svg>
